<svg width="76" height="76" viewBox="0 0 76 76" fill="none" xmlns="http://www.w3.org/2000/svg">
<path d="M67.697 29.1982C68.4641 27.9193 68.875 26.4551 68.875 24.9375C68.875 20.7468 65.7578 17.2698 61.7191 16.7046C61.7393 16.4801 61.75 16.2557 61.75 16.0312C61.75 11.5472 57.8586 7.92656 53.3437 8.34456C52.7903 4.96375 49.8477 2.375 46.3125 2.375C42.3831 2.375 39.1875 5.57056 39.1875 9.5V66.5C39.1875 70.4294 42.3831 73.625 46.3125 73.625C49.8477 73.625 52.7903 71.0362 53.3437 67.6554C57.855 68.077 61.75 64.4528 61.75 59.9688C61.75 59.7443 61.7393 59.5199 61.7191 59.2954C65.7578 58.7302 68.875 55.2532 68.875 51.0625C68.875 49.5449 68.4641 48.0807 67.697 46.8018C71.2179 45.3732 73.625 41.9164 73.625 38C73.625 34.0836 71.2179 30.6268 67.697 29.1982ZM65.493 44.9908C65.0679 45.0739 64.7199 45.3827 64.5881 45.7948C64.4563 46.208 64.5608 46.6604 64.8601 46.9751C65.9181 48.0854 66.5 49.5378 66.5 51.0625C66.5 54.3341 63.84 56.9964 60.5008 56.9964C60.4829 56.9964 60.363 56.9893 60.3464 56.9881C59.9569 56.9727 59.6042 57.1437 59.3702 57.4441C59.1363 57.7434 59.0603 58.1364 59.1648 58.501C59.3038 58.9891 59.375 59.4831 59.375 59.9688C59.375 62.9149 56.9774 65.3125 54.0312 65.3125C53.5408 65.3125 53.0433 65.2401 52.5516 65.0999C52.1835 64.9919 51.7869 65.0726 51.4876 65.3089C51.1872 65.5464 51.0197 65.9134 51.0376 66.2957C51.0387 66.3326 51.0577 66.4632 51.0625 66.5C51.0625 69.1196 48.9321 71.25 46.3125 71.25C43.6929 71.25 41.5625 69.1196 41.5625 66.5V42.75H46.3125V56.031C44.9338 56.5226 43.9375 57.8289 43.9375 59.375C43.9375 61.3391 45.5359 62.9375 47.5 62.9375C49.4641 62.9375 51.0625 61.3391 51.0625 59.375C51.0625 57.8289 50.0662 56.5226 48.6875 56.031V42.75H58.1875V47.7185C56.8088 48.2101 55.8125 49.5164 55.8125 51.0625C55.8125 53.0266 57.4109 54.625 59.375 54.625C61.3391 54.625 62.9375 53.0266 62.9375 51.0625C62.9375 49.5164 61.9412 48.2101 60.5625 47.7185V41.5625C60.5625 40.907 60.0305 40.375 59.375 40.375H41.5625V34.4375H56.031C56.5226 35.8162 57.8289 36.8125 59.375 36.8125C61.3391 36.8125 62.9375 35.2141 62.9375 33.25C62.9375 31.2859 61.3391 29.6875 59.375 29.6875C57.8289 29.6875 56.5226 30.6838 56.031 32.0625H41.5625V26.125H52.25C52.9055 26.125 53.4375 25.593 53.4375 24.9375V19.969C54.8162 19.4774 55.8125 18.1711 55.8125 16.625C55.8125 14.6609 54.2141 13.0625 52.25 13.0625C50.2859 13.0625 48.6875 14.6609 48.6875 16.625C48.6875 18.1711 49.6838 19.4774 51.0625 19.969V23.75H41.5625V9.5C41.5625 6.88037 43.6929 4.75 46.3125 4.75C48.9321 4.75 51.0625 6.88038 51.0613 9.47506C51.0566 9.51188 51.0399 9.66625 51.0376 9.70425C51.0197 10.0866 51.1872 10.4536 51.4876 10.6911C51.7869 10.9274 52.1835 11.0069 52.5516 10.9001C53.0433 10.7599 53.5408 10.6875 54.0312 10.6875C56.9774 10.6875 59.375 13.0851 59.375 16.0312C59.375 16.5169 59.3038 17.0109 59.1648 17.499C59.0603 17.8636 59.1375 18.2566 59.3702 18.5559C59.603 18.8551 59.9569 19.019 60.3464 19.0119C60.3606 19.0119 60.5483 19.0012 60.5625 19C63.8364 19 66.5 21.6636 66.5 24.9375C66.5 26.4622 65.9181 27.9146 64.8601 29.0249C64.5608 29.3396 64.4563 29.792 64.5881 30.2053C64.7199 30.6185 65.0667 30.9261 65.493 31.0092C68.8287 31.6588 71.25 34.599 71.25 38C71.25 41.4022 68.8287 44.3413 65.493 44.9908ZM48.6875 59.375C48.6875 60.0293 48.1543 60.5625 47.5 60.5625C46.8457 60.5625 46.3125 60.0293 46.3125 59.375C46.3125 58.7207 46.8457 58.1875 47.5 58.1875C48.1543 58.1875 48.6875 58.7207 48.6875 59.375ZM60.5625 51.0625C60.5625 51.7168 60.0293 52.25 59.375 52.25C58.7207 52.25 58.1875 51.7168 58.1875 51.0625C58.1875 50.4082 58.7207 49.875 59.375 49.875C60.0293 49.875 60.5625 50.4082 60.5625 51.0625ZM58.1875 33.25C58.1875 32.5957 58.7207 32.0625 59.375 32.0625C60.0293 32.0625 60.5625 32.5957 60.5625 33.25C60.5625 33.9043 60.0293 34.4375 59.375 34.4375C58.7207 34.4375 58.1875 33.9043 58.1875 33.25ZM51.0625 16.625C51.0625 15.9707 51.5957 15.4375 52.25 15.4375C52.9043 15.4375 53.4375 15.9707 53.4375 16.625C53.4375 17.2793 52.9043 17.8125 52.25 17.8125C51.5957 17.8125 51.0625 17.2793 51.0625 16.625Z" fill="black"/>
<path d="M8.303 46.8018C7.53588 48.0807 7.125 49.5449 7.125 51.0625C7.125 55.2532 10.2422 58.7302 14.2809 59.2954C14.2607 59.5199 14.25 59.7443 14.25 59.9688C14.25 64.4539 18.1604 68.0628 22.6563 67.6566C23.2097 71.0362 26.1523 73.625 29.6875 73.625C33.6169 73.625 36.8125 70.4294 36.8125 66.5V9.5C36.8125 5.57056 33.6169 2.375 29.6875 2.375C26.1523 2.375 23.2097 4.96375 22.6563 8.34456C18.1557 7.923 14.25 11.5472 14.25 16.0312C14.25 16.2557 14.2607 16.4801 14.2809 16.7046C10.2422 17.2698 7.125 20.7468 7.125 24.9375C7.125 26.4551 7.53588 27.9193 8.303 29.1982C4.78206 30.6268 2.375 34.0836 2.375 38C2.375 41.9164 4.78206 45.3732 8.303 46.8018ZM24.9375 52.25C25.5918 52.25 26.125 52.7832 26.125 53.4375C26.125 54.0918 25.5918 54.625 24.9375 54.625C24.2832 54.625 23.75 54.0918 23.75 53.4375C23.75 52.7832 24.2832 52.25 24.9375 52.25ZM26.125 56.7815C27.5037 56.2899 28.5 54.9836 28.5 53.4375C28.5 51.8914 27.5037 50.5851 26.125 50.0935V42.75H34.4375V59.375H26.125V56.7815ZM10.507 31.0092C10.9333 30.9261 11.2801 30.6173 11.4119 30.2053C11.5437 29.792 11.4392 29.3396 11.1399 29.0249C10.0819 27.9146 9.5 26.4622 9.5 24.9375C9.5 21.6659 12.16 19.0036 15.4993 19.0036C15.5159 19.0036 15.637 19.0107 15.6536 19.0119C16.0218 19.019 16.3958 18.8551 16.6297 18.5559C16.8637 18.2566 16.9397 17.8636 16.8352 17.499C16.6962 17.0109 16.625 16.5169 16.625 16.0312C16.625 13.0851 19.0226 10.6875 21.9688 10.6875C22.4592 10.6875 22.9568 10.7599 23.4484 10.9001C23.8153 11.0046 24.2119 10.9274 24.5124 10.6911C24.8128 10.4536 24.9802 10.0866 24.9624 9.70425C24.9613 9.66744 24.9422 9.53681 24.9375 9.5C24.9375 6.88037 27.0679 4.75 29.6875 4.75C32.3071 4.75 34.4375 6.88037 34.4375 9.5V23.75H28.5V19.969C29.8787 19.4774 30.875 18.1711 30.875 16.625C30.875 14.6609 29.2766 13.0625 27.3125 13.0625C25.3484 13.0625 23.75 14.6609 23.75 16.625C23.75 18.1711 24.7463 19.4774 26.125 19.969V23.75H19.969C19.4774 22.3713 18.1711 21.375 16.625 21.375C14.6609 21.375 13.0625 22.9734 13.0625 24.9375C13.0625 26.9016 14.6609 28.5 16.625 28.5C18.1711 28.5 19.4774 27.5037 19.969 26.125H27.3125H34.4375V32.0625H17.8125C17.157 32.0625 16.625 32.5945 16.625 33.25V40.5935C15.2463 41.0851 14.25 42.3914 14.25 43.9375C14.25 45.9016 15.8484 47.5 17.8125 47.5C19.7766 47.5 21.375 45.9016 21.375 43.9375C21.375 42.3914 20.3787 41.0851 19 40.5935V34.4375H34.4375V40.375H24.9375C24.282 40.375 23.75 40.907 23.75 41.5625V50.0935C22.3713 50.5851 21.375 51.8914 21.375 53.4375C21.375 54.9836 22.3713 56.2899 23.75 56.7815V60.5625C23.75 61.218 24.282 61.75 24.9375 61.75H34.4375V66.5C34.4375 69.1196 32.3071 71.25 29.6875 71.25C27.0679 71.25 24.9375 69.1196 24.9387 66.5249C24.9434 66.4881 24.9601 66.3337 24.9624 66.2957C24.9802 65.9134 24.8128 65.5464 24.5112 65.3089C24.2998 65.1415 24.0397 65.0536 23.7761 65.0536C23.6657 65.0536 23.5553 65.0691 23.4472 65.0999C22.9579 65.2412 22.4604 65.3125 21.9688 65.3125C19.0226 65.3125 16.625 62.9149 16.625 59.9688C16.625 59.4831 16.6962 58.9891 16.8352 58.501C16.9397 58.1364 16.8625 57.7434 16.6297 57.4441C16.3958 57.1449 16.0218 56.9739 15.6536 56.9881C15.6394 56.9881 15.4517 56.9988 15.4375 57C12.1636 57 9.5 54.3364 9.5 51.0625C9.5 49.5378 10.0819 48.0854 11.1399 46.9751C11.4392 46.6604 11.5437 46.208 11.4119 45.7948C11.2801 45.3815 10.9333 45.0739 10.507 44.9908C7.17131 44.3413 4.75 41.401 4.75 38C4.75 34.599 7.17131 31.6588 10.507 31.0092ZM26.125 16.625C26.125 15.9707 26.6582 15.4375 27.3125 15.4375C27.9668 15.4375 28.5 15.9707 28.5 16.625C28.5 17.2793 27.9668 17.8125 27.3125 17.8125C26.6582 17.8125 26.125 17.2793 26.125 16.625ZM17.8125 24.9375C17.8125 25.5918 17.2793 26.125 16.625 26.125C15.9707 26.125 15.4375 25.5918 15.4375 24.9375C15.4375 24.2832 15.9707 23.75 16.625 23.75C17.2793 23.75 17.8125 24.2832 17.8125 24.9375ZM19 43.9375C19 44.5918 18.4668 45.125 17.8125 45.125C17.1582 45.125 16.625 44.5918 16.625 43.9375C16.625 43.2832 17.1582 42.75 17.8125 42.75C18.4668 42.75 19 43.2832 19 43.9375Z" fill="black"/>
<path d="M55.8125 23.75H58.1875V26.125H55.8125V23.75Z" fill="black"/>
<path d="M7.125 36.8125H9.5V39.1875H7.125V36.8125Z" fill="black"/>
<path d="M14.25 51.0625H16.625V53.4375H14.25V51.0625Z" fill="black"/>
<path d="M65.3125 36.8125H67.6875V39.1875H65.3125V36.8125Z" fill="black"/>
</svg>
